<svg width="48" height="48" viewBox="0 0 48 48" fill="none" xmlns="http://www.w3.org/2000/svg">
<g id="favorite_FILL1_wght400_GRAD0_opsz24 1">
<path id="Vector" d="M24 42L21.1 39.4001C17.7333 36.3667 14.95 33.75 12.75 31.55C10.55 29.35 8.8 27.375 7.5 25.625C6.2 23.875 5.29167 22.2667 4.775 20.8C4.25833 19.3334 4 17.8334 4 16.3C4 13.1667 5.05 10.55 7.15 8.45005C9.25 6.35005 11.8667 5.30005 15 5.30005C16.7333 5.30005 18.3833 5.66672 19.95 6.40005C21.5167 7.13338 22.8667 8.16672 24 9.50005C25.1333 8.16672 26.4833 7.13338 28.05 6.40005C29.6167 5.66672 31.2667 5.30005 33 5.30005C36.1333 5.30005 38.75 6.35005 40.85 8.45005C42.95 10.55 44 13.1667 44 16.3C44 17.8334 43.7417 19.3334 43.225 20.8C42.7083 22.2667 41.8 23.875 40.5 25.625C39.2 27.375 37.45 29.35 35.25 31.55C33.05 33.75 30.2667 36.3667 26.9 39.4001L24 42Z" fill="#FB4646"/>
</g>
</svg>
